<svg xmlns="http://www.w3.org/2000/svg" width="46" height="46" viewBox="0 0 46 46">
    <defs>
        <style>
            .cls-1{fill:#eaeaea}
        </style>
    </defs>
    <g id="github-sign" transform="translate(-8 -3)">
        <g id="Group_1" data-name="Group 1" transform="translate(8 3)">
            <path id="Path_6" d="M154.544 352.52q-.488.091-.427.457t.548.244q.488-.122.427-.427-.061-.335-.548-.274z" class="cls-1" data-name="Path 6" transform="translate(-137.951 -315.691)"/>
            <path id="Path_7" d="M137.817 354.816c-.325 0-.487.111-.487.335q0 .4.518.335.488 0 .488-.335 0-.395-.519-.335z" class="cls-1" data-name="Path 7" transform="translate(-122.93 -317.744)"/>
            <path id="Path_8" d="M119.435 351.965q-.122.335.4.457.457.182.579-.183.092-.335-.4-.487c-.305-.081-.497-.011-.579.213z" class="cls-1" data-name="Path 8" transform="translate(-106.891 -314.984)"/>
            <path id="Path_9" d="M43.469 2.53A8.308 8.308 0 0 0 37.375 0H8.625A8.309 8.309 0 0 0 2.53 2.53 8.309 8.309 0 0 0 0 8.625v28.75a8.307 8.307 0 0 0 2.53 6.094A8.308 8.308 0 0 0 8.625 46h6.708a8.1 8.1 0 0 0 .988-.044 1.159 1.159 0 0 0 .659-.39 1.4 1.4 0 0 0 .329-1l-.015-2.037q-.015-1.948-.015-3.085l-.689.12a8.814 8.814 0 0 1-1.662.1 12.79 12.79 0 0 1-2.081-.21 4.666 4.666 0 0 1-2.007-.9 3.8 3.8 0 0 1-1.317-1.842l-.3-.689A7.481 7.481 0 0 0 8.28 34.5a3.615 3.615 0 0 0-1.3-1.138l-.21-.15a2.2 2.2 0 0 1-.389-.36 1.664 1.664 0 0 1-.269-.419q-.09-.21.15-.345a1.947 1.947 0 0 1 .869-.134l.6.09a4.366 4.366 0 0 1 1.483.719 4.833 4.833 0 0 1 1.452 1.557 5.278 5.278 0 0 0 1.662 1.872 3.524 3.524 0 0 0 1.961.644 8.508 8.508 0 0 0 1.707-.149 5.962 5.962 0 0 0 1.348-.45 4.854 4.854 0 0 1 1.467-3.085 20.508 20.508 0 0 1-3.07-.539 12.234 12.234 0 0 1-2.815-1.168 8.06 8.06 0 0 1-2.411-2.007 9.647 9.647 0 0 1-1.572-3.145 14.957 14.957 0 0 1-.618-4.493 8.735 8.735 0 0 1 2.366-6.169 8.051 8.051 0 0 1 .209-6.109 4.2 4.2 0 0 1 2.576.4 18.061 18.061 0 0 1 2.5 1.153q.794.479 1.273.809a21.623 21.623 0 0 1 11.5 0l1.138-.719a16.111 16.111 0 0 1 2.755-1.318 3.923 3.923 0 0 1 2.426-.329 7.972 7.972 0 0 1 .239 6.109 8.736 8.736 0 0 1 2.368 6.173 15.1 15.1 0 0 1-.614 4.507 9.252 9.252 0 0 1-1.587 3.145 8.375 8.375 0 0 1-2.426 1.992 12.217 12.217 0 0 1-2.815 1.168 20.494 20.494 0 0 1-3.07.54A5.334 5.334 0 0 1 28.72 37.4v7.158a1.927 1.927 0 0 0 .149.824.827.827 0 0 0 .479.434 2.654 2.654 0 0 0 .584.149 6.724 6.724 0 0 0 .734.03h6.708A8.64 8.64 0 0 0 46 37.374V8.625a8.309 8.309 0 0 0-2.531-6.095z" class="cls-1" data-name="Path 9"/>
            <path id="Path_10" d="M86.013 318.58q-.213.152.061.487.305.3.488.091.213-.152-.061-.488-.301-.27-.488-.09z" class="cls-1" data-name="Path 10" transform="translate(-76.91 -285.107)"/>
            <path id="Path_11" d="M77.2 311.256q-.091.214.213.366a.26.26 0 0 0 .4-.061q.091-.214-.213-.366-.311-.095-.4.061z" class="cls-1" data-name="Path 11" transform="translate(-68.941 -278.528)"/>
            <path id="Path_12" d="M94.5 329.7c-.183.1-.183.284 0 .548s.355.335.518.213q.274-.214 0-.579c-.165-.259-.338-.321-.518-.182z" class="cls-1" data-name="Path 12" transform="translate(-84.465 -295.065)"/>
            <path id="Path_13" d="M104.7 342.192c-.183.163-.143.355.122.579q.365.365.609.091.244-.243-.122-.578-.364-.365-.609-.092z" class="cls-1" data-name="Path 13" transform="translate(-93.621 -306.206)"/>
        </g>
    </g>
</svg>
