<svg xmlns="http://www.w3.org/2000/svg" width="46" height="46" viewBox="0 0 46 46">
    <defs>
        <style>
            .cls-1{fill:#fff}
        </style>
    </defs>
    <g id="linkedin-logo" transform="translate(-.002)">
        <path id="LinkedIn__x28_alt_x29_" d="M42.605 0H3.4A3.348 3.348 0 0 0 0 3.3v39.4A3.35 3.35 0 0 0 3.4 46h39.2a3.348 3.348 0 0 0 3.4-3.3V3.3A3.347 3.347 0 0 0 42.605 0zM13.948 38.505H7V17.737h6.95zM10.473 14.9h-.047a3.6 3.6 0 1 1 .091-7.176 3.6 3.6 0 1 1-.044 7.176zM39 38.505h-6.946V27.393c0-2.792-1.007-4.7-3.519-4.7a3.8 3.8 0 0 0-3.564 2.526 4.641 4.641 0 0 0-.232 1.682V38.5h-6.947s.091-18.82 0-20.768h6.948v2.944A6.9 6.9 0 0 1 31 17.248c4.573 0 8 2.967 8 9.349zM24.694 20.747a1.13 1.13 0 0 1 .045-.066v.066z" class="cls-1"/>
    </g>
</svg>
