<svg xmlns="http://www.w3.org/2000/svg" width="57.89" height="53.8" viewBox="0 0 57.89 53.8">
    <path d="M24.925 2.367v9.66a2.372 2.372 0 0 1-2.372 2.372c-4.674 0-7.217 4.794-7.569 14.256h7.569a2.372 2.372 0 0 1 2.372 2.372v20.4a2.372 2.372 0 0 1-2.372 2.371H2.372A2.371 2.371 0 0 1 0 51.429v-20.4a52.306 52.306 0 0 1 1.357-12.37 29.771 29.771 0 0 1 4.212-9.792 20.56 20.56 0 0 1 7.158-6.541A20.371 20.371 0 0 1 22.555 0a2.372 2.372 0 0 1 2.37 2.367zm30.593 12.037a2.373 2.373 0 0 0 2.372-2.372V2.367a2.372 2.372 0 0 0-2.372-2.372 19.7 19.7 0 0 0-16.985 8.872 29.785 29.785 0 0 0-4.211 9.793 52.345 52.345 0 0 0-1.357 12.372v20.4a2.372 2.372 0 0 0 2.372 2.371h20.181a2.372 2.372 0 0 0 2.371-2.371v-20.4a2.372 2.372 0 0 0-2.371-2.372h-7.461c.343-9.462 2.852-14.256 7.461-14.256z" data-name="Path 68"/>
</svg>
