<svg xmlns="http://www.w3.org/2000/svg" width="68.764" height="60.696" viewBox="0 0 68.764 60.696">
    <path d="M65.238.003h-21.44a3.528 3.528 0 0 0-3.526 3.526v21.437a3.527 3.527 0 0 0 3.526 3.526h10.261q-.2 8.421-3.907 13.484a21.244 21.244 0 0 1-8.837 6.615 3.521 3.521 0 0 0-1.749 4.732l2.539 5.36a3.526 3.526 0 0 0 4.591 1.721 39.205 39.205 0 0 0 11.827-7.673 29.772 29.772 0 0 0 8.062-12.828q2.179-7.151 2.179-19.521V3.526A3.528 3.528 0 0 0 65.238.003z" data-name="Path 69"/>
    <path d="M7.478 60.39a39.866 39.866 0 0 0 11.771-7.659 29.613 29.613 0 0 0 8.11-12.779q2.179-7.1 2.179-19.571V3.526A3.527 3.527 0 0 0 26.012.003H4.572a3.528 3.528 0 0 0-3.526 3.526v21.437a3.527 3.527 0 0 0 3.526 3.526h10.262q-.2 8.421-3.907 13.484a21.244 21.244 0 0 1-8.837 6.615 3.521 3.521 0 0 0-1.749 4.733l2.532 5.346a3.536 3.536 0 0 0 4.605 1.72z" data-name="Path 70"/>
</svg>
