<svg xmlns="http://www.w3.org/2000/svg" width="150.325" height="146.566" viewBox="0 0 150.325 146.566">
    <defs>
        <style>
            .cls-1{fill:#2e001e}.cls-2{fill:#ff2bc2}
        </style>
    </defs>
    <g id="adobe-xd" transform="translate(-39.475 428.053)">
        <g id="Group_5" data-name="Group 5" transform="translate(76 -13)">
            <path id="Path_5" d="M10 10h137.8v134.039H10z" class="cls-1" data-name="Path 5" transform="translate(-40.262 -418.79)"/>
            <path id="Path_6" d="M0 0v146.566h150.325V0zm6.264 6.264h137.8V140.3H6.264z" class="cls-2" data-name="Path 6" transform="translate(-36.525 -415.053)"/>
            <path id="Path_7" d="M126.064 82.308a8.6 8.6 0 0 0-3.633-.626c-7.892 0-13.153 6.076-13.153 16.16 0 11.525 5.387 16.16 12.4 16.16a11.817 11.817 0 0 0 4.322-.689v-31zM98 98.343c0-14.594 9.4-25.994 24.8-25.994a27.776 27.776 0 0 1 3.257.125V56.189a.628.628 0 0 1 .626-.626h10.084c.5 0 .626.188.626.5v57.249a44.612 44.612 0 0 0 .313 6.138c0 .438 0 .5-.376.689a37.31 37.31 0 0 1-16.035 3.633c-13.592 0-23.3-8.393-23.3-25.43zM76.645 88.2l17.538 34.011c.313.5.125 1-.376 1h-10.9a1.229 1.229 0 0 1-1.315-.814q-6.013-12.4-12.277-25.743h-.125c-3.758 8.393-7.892 17.538-11.9 25.806a1.2 1.2 0 0 1-1.127.689h-10.4c-.626 0-.689-.5-.376-.877L62.552 89.26 45.954 56.44a.555.555 0 0 1 .438-.94h10.774c.626 0 .94.125 1.127.689 3.946 8.33 7.955 16.536 11.713 24.929h.125c3.633-8.268 7.641-16.6 11.462-24.8.313-.5.5-.814 1.127-.814h10.085c.5 0 .689.376.376.94L76.645 88.2z" class="cls-2" data-name="Path 7" transform="translate(-52.823 -439.737)"/>
        </g>
    </g>
</svg>
