<svg xmlns="http://www.w3.org/2000/svg" id="c" width="160.084" height="179.921" viewBox="0 0 160.084 179.921">
    <defs>
        <style>
            .cls-1{fill:#5c8dbc}.cls-2{fill:#1a4674}.cls-3{fill:#1b598e}.cls-4{fill:#fff}
        </style>
    </defs>
    <path id="Path_8" d="M160.076 53.165a15.887 15.887 0 0 0-1.957-7.993 15.284 15.284 0 0 0-5.792-5.642Q120.36 21.1 88.379 2.689c-5.744-3.316-11.313-3.2-17.014.168-8.483 5-50.953 29.335-63.608 36.665A14.782 14.782 0 0 0 .008 53.159Q0 90.228 0 127.3a15.957 15.957 0 0 0 1.872 7.84 15.231 15.231 0 0 0 5.879 5.8c12.656 7.33 55.132 31.66 63.612 36.664 5.7 3.365 11.272 3.486 17.018.168q31.958-18.452 63.954-36.84a15.237 15.237 0 0 0 5.879-5.8 15.978 15.978 0 0 0 1.871-7.841s0-49.412-.008-74.126" class="cls-1" data-name="Path 8" transform="translate(0 -.268)"/>
    <path id="Path_9" d="M81.4 143.509l-78.412 45.15a15.231 15.231 0 0 0 5.879 5.8c12.656 7.33 55.132 31.66 63.612 36.664 5.7 3.365 11.272 3.486 17.018.168q31.958-18.452 63.954-36.84a15.237 15.237 0 0 0 5.879-5.8L81.4 143.509" class="cls-2" data-name="Path 9" transform="translate(-1.116 -53.789)"/>
    <path id="Path_10" d="M91.1 156.883a26.465 26.465 0 0 0 46.048-.153l-22.822-13.22L91.1 156.883" class="cls-2" data-name="Path 10" transform="translate(-34.04 -53.789)"/>
    <path id="Path_11" d="M207.971 79.952a15.887 15.887 0 0 0-1.957-7.993l-77.832 44.816 77.926 45.144a15.978 15.978 0 0 0 1.871-7.841s0-49.412-.008-74.126" class="cls-3" data-name="Path 11" transform="translate(-47.895 -27.055)"/>
    <path id="Path_12" d="M224.575 141.4h-6.089v6.091H212.4V141.4h-6.089v-6.089h6.089v-6.089h6.091v6.089h6.089v6.089m-22.22 0h-6.089v6.091h-6.089V141.4h-6.089v-6.089h6.089v-6.089h6.089v6.089h6.089v6.089" class="cls-4" data-name="Path 12" transform="translate(-68.784 -48.45)"/>
    <path id="Path_13" d="M119.145 125.16a26.472 26.472 0 1 1-.172-26.261l23.138-13.324a53.161 53.161 0 1 0 .138 52.971l-23.1-13.386" class="cls-4" data-name="Path 13" transform="translate(-16.035 -22.22)"/>
</svg>
