<svg xmlns="http://www.w3.org/2000/svg" width="160.346" height="160.343" viewBox="0 0 160.346 160.343">
    <defs>
        <style>
            .cls-1{fill:#de4c36}
        </style>
    </defs>
    <path id="git-icon" d="M157.322 73.029l-70.009-70a10.327 10.327 0 0 0-14.6 0l-14.54 14.533L76.615 36a12.263 12.263 0 0 1 15.53 15.633l17.772 17.777a12.272 12.272 0 1 1-7.36 6.928L85.983 59.764v43.617a12.414 12.414 0 0 1 3.25 2.324 12.277 12.277 0 1 1-13.353-2.681V59a12.138 12.138 0 0 1-4.022-2.681 12.283 12.283 0 0 1-2.648-13.433L51.029 24.7l-48 48a10.329 10.329 0 0 0 0 14.608l70.01 70.006a10.327 10.327 0 0 0 14.6 0l69.682-69.681a10.333 10.333 0 0 0 0-14.609" class="cls-1"/>
</svg>
