<svg xmlns="http://www.w3.org/2000/svg" id="html-5" width="123.902" height="174.888" viewBox="0 0 123.902 174.888">
    <defs>
        <style>
            .cls-1{fill:#e44d26}.cls-2{fill:#f16529}.cls-3{fill:#ebebeb}.cls-4{fill:#fff}
        </style>
    </defs>
    <path id="Path_25" d="M124.347 70.766l-11.288 126.452-50.739 14.066-50.6-14.047L.445 70.766h123.9z" class="cls-1" data-name="Path 25" transform="translate(-.445 -36.396)"/>
    <path id="Path_26" d="M128 211.482l41-11.366 9.646-108.059H128z" class="cls-2" data-name="Path 26" transform="translate(-66.049 -47.347)"/>
    <path id="Path_27" d="M64.869 139.506h21.943V124H47.917l.371 4.161L52.1 170.9h34.712v-15.51H66.286zm3.5 39.151H52.794l2.173 24.355 31.774 8.82.071-.019v-16.139l-.068.018-17.275-4.664-1.1-12.371z" class="cls-3" data-name="Path 27" transform="translate(-24.861 -63.773)"/>
    <path id="Path_28" d="M24.18 0h7.883v7.788h7.211V0h7.883v23.584h-7.883v-7.9h-7.211v7.9H24.18V0zm33.342 7.821h-6.938V0h21.765v7.821h-6.943v15.763h-7.883V7.821zM75.8 0h8.219l5.056 8.287L94.129 0h8.223v23.584H94.5v-11.69l-5.422 8.386h-.136l-5.426-8.385v11.689H75.8zm30.472 0h7.885v15.788h11.085v7.8h-18.968V0z" data-name="Path 28" transform="translate(-12.652)"/>
    <path id="Path_29" d="M127.889 170.9h19.1l-1.8 20.117-17.3 4.669v16.137l31.8-8.813.233-2.621 3.646-40.836.378-4.165h-36.057zm0-31.433v.038h37.467l.311-3.486.707-7.864.371-4.161h-38.856v15.474z" class="cls-4" data-name="Path 29" transform="translate(-65.992 -63.773)"/>
</svg>
