<svg xmlns="http://www.w3.org/2000/svg" id="javascript" width="160.346" height="160.346" viewBox="0 0 160.346 160.346">
    <defs>
        <style>
            .cls-1{fill:#f7df1e}
        </style>
    </defs>
    <path id="Path_30" d="M0 0h160.346v160.346H0z" class="cls-1" data-name="Path 30"/>
    <path id="Path_31" d="M67.312 177.4l12.27-7.426c2.368 4.2 4.521 7.749 9.687 7.749 4.951 0 8.074-1.937 8.074-9.47v-51.238h15.067v51.447c0 15.607-9.149 22.711-22.5 22.711-12.054 0-19.051-6.243-22.6-13.777m53.284-1.613l12.269-7.1c3.23 5.275 7.428 9.149 14.854 9.149 6.244 0 10.225-3.122 10.225-7.427 0-5.166-4.09-7-10.979-10.009l-3.766-1.616c-10.872-4.627-18.083-10.439-18.083-22.71 0-11.3 8.61-19.913 22.065-19.913 9.579 0 16.468 3.337 21.419 12.055l-11.733 7.535c-2.584-4.628-5.381-6.458-9.687-6.458-4.413 0-7.212 2.8-7.212 6.458 0 4.52 2.8 6.351 9.256 9.15l3.767 1.614c12.809 5.49 20.02 11.086 20.02 23.679 0 13.563-10.656 20.989-24.971 20.989-13.992 0-23.033-6.673-27.446-15.392" data-name="Path 31" transform="translate(-25.151 -43.4)"/>
</svg>
