<svg xmlns="http://www.w3.org/2000/svg" width="319.538" height="72.616" viewBox="0 0 319.538 72.616">
    <defs>
        <style>
            .cls-1,.cls-2{fill:#1a1918;fill-rule:evenodd}.cls-2{fill:#21609b}
        </style>
    </defs>
    <g id="jquery-1" transform="translate(9 59)">
        <path id="Path_32" d="M469.684 8.646l13.416.074s-24.944 33.8-26.981 36.555a15.713 15.713 0 0 0-2.176 3.047 68.062 68.062 0 0 0-2.611 9.574l-12.276.061s1.91-6.855 1.831-10.506c-.069-3.189-1.7-6.375-2.611-9.574-.923-3.238-2.177-9.574-2.177-9.574h12.621l1.741 6.963 19.221-26.62" class="cls-1" data-name="Path 32" transform="translate(-172.562 -56.279)"/>
        <path id="Path_33" d="M319.43 12.573c2.476 1.493 4 9.727 4 9.727s-12.955.191-20.006.191h-6.093l-7.4 32.2h-11.317s7.041-35 8.7-41.342c.539-2.054 3.69-1.7 9.013-1.7h8.5c5.488 0 11.9-.7 14.6.923m-52.672 15.685a6.782 6.782 0 0 0-1.2-4.461c-1.323-2.041-2.546-2.515-6.027-2.624-9.831-.309-9.64 6.976-9.64 6.976zm10.662-8.343c1.441 5.2-1.305 17.408-1.305 17.408s-14.34-.239-22.194 0c-2.442.075-5.365-.266-6.093.871-1.023 1.592.374 4.043 1.558 5.078 1.362 1.192 4.016 1.328 4.97 1.449 6.375.81 19.718.209 19.718.209l-2.311 10.235s-18.855.946-28.286-1.305a9.6 9.6 0 0 1-4.787-2.611c-.322-.348-.6-.822-.906-1.231a11.436 11.436 0 0 1-1.27-2.25c-2.154-5.74.252-16.736 2.611-22.629.274-.683.618-1.549.98-2.285.452-.918.835-1.954 1.2-2.5.243-.378.544-.622.8-.979a14.615 14.615 0 0 1 .944-1.2 17.934 17.934 0 0 1 3.047-2.611c3.929-2.943 11.04-5.227 19.583-4.353 3.216.331 8.074 1.479 10.444 4.787a14.608 14.608 0 0 1 1.305 3.917zm-51.9-8.3l10.971-.065s-6.114 29-9.231 43.148h-12.616c-8.82 0-16.675 1.092-20.018-5.223-3.242-6.131-.148-16.214 1.305-23.065 1.027-4.848 3.191-14.757 3.191-14.757l11.367-.1s-3.212 15.427-4.549 23.13c-.479 2.759-1.466 5.357-.435 7.4.979 1.942 2.35 2.081 6.527 2.177 1.323.031 5.658 0 5.658 0l7.833-32.639M174.17 32.5c1.149-4.081 2.824-8.507 2.611-12.185-.23-3.933-3.529-7.515-5.657-8.268a14.5 14.5 0 0 0-14.8 3.481c-3.085 3.342-4.13 7.246-5.223 12.621-.813 3.99-1.479 8.2 0 11.314 2.619 5.5 10.788 4.3 19.584 4.353 1.309-3.5 2.389-7.43 3.485-11.316zm15.23-16.1c1.253 9.112-3.555 19.17-6.867 27.917 3.377.305 6.337-.047 6.55.2.222.326-2.264 10.44-3.13 10.466-2.68.07-11.562.143-15.265.143-12.085 0-23.391.787-29.157-5.222a18.954 18.954 0 0 1-4.353-9.574 40.6 40.6 0 0 1 1.306-14.8 44.782 44.782 0 0 1 4.352-11.316C147.916 5.357 156.75-1.222 171.559.3a27.581 27.581 0 0 1 9.574 3.046c.178.1.8.6.944.688 3.482 2.212 6.655 7.499 7.323 12.366zm-53.471-4.735c-.731 3.329-1.462 7.1-2.232 10.392h-12.184c.944-3.647 1.667-7.272 2.611-10.444 3.9 0 7.524.052 11.807.052M121.078 25.1h11.75c-1.536 8.5-4.579 22.22-6.963 31.768-1.493 5.975-2.489 10.335-6.528 13.49-.361.283-.57.148-.871.435-.744.71-4.187 1.533-6.092 1.741a87.6 87.6 0 0 1-10.41-.034c1-3.642 2.124-8.016 3.012-11.281 9.283 1.124 9.517-7.65 11.314-16.1 1.04-4.883 4.191-18.06 4.787-20.018" class="cls-1" data-name="Path 33" transform="translate(-54.713 -59.078)"/>
        <g id="Group_1" data-name="Group 1" transform="translate(-9 -47.15)">
            <path id="Path_34" d="M55.929 55.864l-.252.653C51.387 64.872 43.783 70 32.939 70.224a31.792 31.792 0 0 1-13.056-2.611 33.725 33.725 0 0 1-15.666-14.8c-4.487-8.691-5.3-20.78 4.034-29.809.144 0-1.132 1.958-.988 1.958l-.257.836C.283 46.851 21 64.89 41.133 62.826a26.45 26.45 0 0 0 14.8-6.963" class="cls-2" data-name="Path 34" transform="translate(-.981 -14.495)"/>
            <path id="Path_35" d="M53.614 43.686a19.266 19.266 0 0 0 13.491-5.657c-2.742 6.959-10.679 11.432-21.324 10.009C36.869 46.846 28.379 37.877 27.5 28.89c-.64-6.54 1.64-10.444 5.4-15.179a15.884 15.884 0 0 0-1.915 5.6c-1.427 14.148 11.3 24.3 22.629 24.371" class="cls-2" data-name="Path 35" transform="translate(-10.851 -11.021)"/>
            <path id="Path_36" d="M75.221 24.509c-.787 1.806-5.321 5.218-7.324 5.644-7.929 1.689-13.007-2.071-15.667-6.353a19.6 19.6 0 0 1-1.257-2.828c-1.032-3.508-.557-8.813 2.52-11.559a14.449 14.449 0 0 0-.574 7.616 16.912 16.912 0 0 0 2.1 4.582 12.053 12.053 0 0 0 4.787 4.23A12.7 12.7 0 0 0 62.209 27c2 .588 6.215 2.137 13.012-2.489" class="cls-2" data-name="Path 36" transform="translate(-19.476 -9.417)"/>
        </g>
    </g>
</svg>
