<svg xmlns="http://www.w3.org/2000/svg" id="nodejs" width="320.149" height="90.406" viewBox="0 0 320.149 90.406">
    <defs>
        <style>
            .cls-1{fill:#83cd29}.cls-2{fill:#404137}
        </style>
    </defs>
    <g id="Group_2" data-name="Group 2" transform="translate(268.864 32.087)">
        <path id="Path_43" d="M455.753 51.611a4.44 4.44 0 0 0-2.208.541L432.32 64.409a4.474 4.474 0 0 0-2.209 3.876v24.472a4.476 4.476 0 0 0 2.209 3.875l5.543 3.2c2.693 1.327 3.686 1.307 4.912 1.307 3.987 0 6.264-2.42 6.264-6.624V70.358a.606.606 0 0 0-.631-.586h-2.659a.6.6 0 0 0-.631.586v24.156c0 1.863-1.942 3.738-5.092 2.163l-5.769-3.38a.636.636 0 0 1-.361-.541V68.285a.714.714 0 0 1 .361-.586l21.181-12.212a.625.625 0 0 1 .631 0L477.25 67.7a.719.719 0 0 1 .361.586v24.471a.68.68 0 0 1-.316.586l-21.226 12.213a.652.652 0 0 1-.631 0l-5.453-3.245a.567.567 0 0 0-.541 0 14.041 14.041 0 0 1-3.2 1.442c-.348.122-.876.31.18.9l7.12 4.19a4.454 4.454 0 0 0 4.416 0l21.226-12.213a4.481 4.481 0 0 0 2.208-3.875V68.286a4.474 4.474 0 0 0-2.208-3.875l-21.224-12.258a4.418 4.418 0 0 0-2.208-.541z" class="cls-1" data-name="Path 43" transform="translate(-430.111 -51.611)"/>
        <path id="Path_44" d="M473.933 79.528c-6.044 0-9.644 2.572-9.644 6.85 0 4.64 3.573 5.915 9.374 6.489 6.94.68 7.48 1.7 7.48 3.065 0 2.369-1.889 3.38-6.354 3.38-5.61 0-6.843-1.4-7.256-4.191a.612.612 0 0 0-.586-.541H464.2a.644.644 0 0 0-.631.631c0 3.572 1.943 7.8 11.222 7.8 6.716 0 10.59-2.636 10.59-7.256 0-4.579-3.129-5.808-9.645-6.669-6.583-.871-7.211-1.3-7.211-2.839 0-1.273.532-2.975 5.408-2.975 4.356 0 5.965.94 6.625 3.877a.616.616 0 0 0 .586.5h2.75a.666.666 0 0 0 .45-.225.591.591 0 0 0 .18-.45c-.426-5.057-3.8-7.436-10.591-7.436z" class="cls-1" data-name="Path 44" transform="translate(-442.612 -62.042)"/>
    </g>
    <path id="Path_45" d="M170.576.383a1.349 1.349 0 0 0-1.352 1.352V36.21a.912.912 0 0 1-.45.811.94.94 0 0 1-.946 0l-5.633-3.245a2.7 2.7 0 0 0-2.7 0L137 46.755a2.769 2.769 0 0 0-1.352 2.389V75.1A2.7 2.7 0 0 0 137 77.445l22.49 12.98a2.693 2.693 0 0 0 2.7 0l22.488-12.979a2.7 2.7 0 0 0 1.352-2.343V10.388A2.747 2.747 0 0 0 184.637 8L171.252.517a1.316 1.316 0 0 0-.676-.135zM25.914 32.785a2.54 2.54 0 0 0-1.214.315L2.209 46.08a2.693 2.693 0 0 0-1.352 2.343L.9 83.26a1.33 1.33 0 0 0 .676 1.171 1.313 1.313 0 0 0 1.352 0L16.27 76.77a2.754 2.754 0 0 0 1.4-2.344V58.158a2.69 2.69 0 0 1 1.352-2.344l5.678-3.29a2.714 2.714 0 0 1 2.7 0l5.679 3.29a2.691 2.691 0 0 1 1.352 2.344v16.268a2.758 2.758 0 0 0 1.4 2.344l13.339 7.662a1.313 1.313 0 0 0 1.352 0 1.355 1.355 0 0 0 .676-1.172l.044-34.836a2.681 2.681 0 0 0-1.352-2.343L27.4 33.1a2.525 2.525 0 0 0-1.216-.315zm202.076.315a2.7 2.7 0 0 0-1.352.361L204.15 46.44a2.7 2.7 0 0 0-1.352 2.343v25.959a2.716 2.716 0 0 0 1.4 2.344L226.5 89.794a2.706 2.706 0 0 0 2.659.044l13.52-7.526a1.366 1.366 0 0 0 .721-1.171 1.332 1.332 0 0 0-.676-1.172L220.1 66.99a1.456 1.456 0 0 1-.721-1.217v-8.111a1.39 1.39 0 0 1 .721-1.172l7.03-4.056a1.35 1.35 0 0 1 1.352 0l7.03 4.056a1.348 1.348 0 0 1 .676 1.171v6.4a1.352 1.352 0 0 0 2.027 1.171l13.475-7.84a2.709 2.709 0 0 0 1.352-2.344v-6.264a2.7 2.7 0 0 0-1.352-2.344l-22.348-12.979a2.68 2.68 0 0 0-1.352-.36zm-67.239 19.379a.755.755 0 0 1 .361.09l7.707 4.462a.7.7 0 0 1 .361.586v8.923a.7.7 0 0 1-.361.586l-7.707 4.462a.682.682 0 0 1-.676 0l-7.706-4.462a.7.7 0 0 1-.361-.586v-8.924a.7.7 0 0 1 .361-.586l7.706-4.461a.594.594 0 0 1 .316-.09z" class="cls-2" data-name="Path 45" transform="translate(-.857 -.383)"/>
    <path id="Path_46" d="M133.686 52.4a2.7 2.7 0 0 0-1.352.361L109.846 65.7a2.767 2.767 0 0 0-1.352 2.388v25.955a2.7 2.7 0 0 0 1.352 2.344l22.488 12.979a2.691 2.691 0 0 0 2.7 0l22.488-12.979a2.7 2.7 0 0 0 1.352-2.344V68.085a2.767 2.767 0 0 0-1.352-2.388l-22.484-12.934a2.691 2.691 0 0 0-1.352-.361zm134.477 23.166a.552.552 0 0 0-.27.045l-4.326 2.524a.526.526 0 0 0-.271.451v4.957a.527.527 0 0 0 .271.451l4.326 2.478a.471.471 0 0 0 .5 0l4.326-2.479a.53.53 0 0 0 .271-.45v-4.958a.53.53 0 0 0-.271-.45l-4.326-2.524a.375.375 0 0 0-.225-.044z" class="cls-1" data-name="Path 46" transform="translate(-41.075 -19.819)"/>
</svg>
