<svg xmlns="http://www.w3.org/2000/svg" id="react" width="159.363" height="143.28" viewBox="0 0 159.363 143.28">
    <defs>
        <style>
            .cls-1{fill:#fff}.cls-2{fill:#53c1de}
        </style>
    </defs>
    <path id="Path_49" d="M.754 72.167c0 12.035 11.752 23.27 30.28 29.6-3.7 18.626-.663 33.639 9.48 39.488 10.426 6.013 25.958 1.851 40.7-11.036 14.37 12.367 28.894 17.233 39.028 11.367 10.416-6.03 13.584-22.061 9.782-41.268 19.3-6.38 30.092-15.96 30.092-28.154 0-11.756-11.774-21.926-30.052-28.218 4.093-20 .625-34.65-9.938-40.741-10.184-5.873-24.876-.754-39.458 11.936C65.5 1.674 50.952-2.438 40.4 3.67c-10.175 5.89-13.078 21.176-9.366 40.147C13.131 50.058.754 60.459.754 72.167z" class="cls-1" data-name="Path 49" transform="translate(-.754 -.785)"/>
    <path id="Path_50" d="M131.608 55.327q-2.26-.775-4.556-1.436.381-1.547.7-3.107c3.449-16.741 1.194-30.228-6.507-34.667-7.383-4.258-19.458.182-31.653 10.794q-1.8 1.572-3.524 3.234-1.152-1.1-2.345-2.166C70.947 16.631 58.136 11.849 50.444 16.3c-7.376 4.27-9.561 16.949-6.456 32.815q.463 2.357 1.046 4.688a94.573 94.573 0 0 0-5.238 1.647c-14.984 5.224-24.553 13.411-24.553 21.9 0 8.771 10.272 17.569 25.88 22.9q1.9.646 3.827 1.2-.626 2.51-1.112 5.053c-2.96 15.59-.648 27.969 6.708 32.212 7.6 4.381 20.351-.122 32.769-10.977q1.472-1.287 2.953-2.722 1.864 1.8 3.826 3.491c12.028 10.35 23.908 14.53 31.258 10.275 7.591-4.395 10.058-17.693 6.855-33.872q-.366-1.854-.849-3.783 1.344-.4 2.632-.822c16.225-5.375 26.781-14.066 26.781-22.955 0-8.523-9.878-16.766-25.163-22.028z" class="cls-2" data-name="Path 50" transform="translate(-6.168 -5.915)"/>
    <path id="Path_51" d="M131.695 98.169c-.774.256-1.568.5-2.377.743a141.9 141.9 0 0 0-7.167-17.929 141.844 141.844 0 0 0 6.888-17.668c1.448.42 2.853.861 4.207 1.328 13.1 4.508 21.086 11.174 21.086 16.31 0 5.471-8.628 12.574-22.636 17.216zm-5.813 11.518c1.416 7.154 1.618 13.623.68 18.679-.843 4.544-2.538 7.573-4.634 8.786-4.46 2.582-14-.774-24.285-9.626q-1.769-1.522-3.559-3.245a142.079 142.079 0 0 0 11.863-15.064 141.136 141.136 0 0 0 19.168-2.954q.432 1.748.766 3.424zM67.1 136.706c-4.358 1.539-7.828 1.583-9.926.373-4.465-2.574-6.32-12.515-3.789-25.846q.451-2.363 1.033-4.7a142.169 142.169 0 0 0 19.072 2.761A147.123 147.123 0 0 0 85.639 124.3q-1.317 1.274-2.7 2.483c-5.491 4.8-10.994 8.205-15.843 9.918zM46.685 98.135c-6.9-2.359-12.6-5.424-16.507-8.769-3.51-3.006-5.283-5.991-5.283-8.413 0-5.153 7.683-11.727 20.5-16.194q2.413-.837 4.871-1.533a145 145 0 0 0 6.9 17.874 147.2 147.2 0 0 0-6.984 18.129q-1.76-.5-3.494-1.094zm6.844-46.582c-2.66-13.594-.894-23.848 3.551-26.421 4.735-2.741 15.2 1.168 26.24 10.966a78.405 78.405 0 0 1 2.123 1.96 144.885 144.885 0 0 0-12.056 14.92A147.731 147.731 0 0 0 54.5 55.913q-.541-2.168-.973-4.361zm61.049 15.074q-2.075-3.585-4.3-7.078c4.516.57 8.842 1.328 12.9 2.255a128.97 128.97 0 0 1-4.53 12.187q-1.962-3.723-4.071-7.365zm-24.9-24.249a129.3 129.3 0 0 1 8.332 10.055q-8.359-.395-16.727 0a131.942 131.942 0 0 1 8.398-10.054zM64.626 66.669q-2.083 3.612-3.995 7.319a134.314 134.314 0 0 1-4.5-12.246c4.038-.9 8.344-1.642 12.831-2.2q-2.253 3.514-4.339 7.13zm4.468 36.13a128.737 128.737 0 0 1-13.043-2.1c1.25-4.035 2.789-8.229 4.587-12.494q1.92 3.708 4.012 7.323 2.135 3.687 4.443 7.268zm20.755 17.155c-2.866-3.092-5.724-6.512-8.515-10.191q4.064.16 8.28.16 4.327 0 8.543-.19a128.574 128.574 0 0 1-8.309 10.221zm28.857-31.964a128.4 128.4 0 0 1 4.753 12.45 128.314 128.314 0 0 1-13.2 2.25q2.244-3.557 4.345-7.2 2.135-3.7 4.1-7.5zm-9.342 4.478q-3.216 5.586-6.79 10.955c-4.2.3-8.538.455-12.96.455-4.4 0-8.688-.137-12.814-.4q-3.665-5.357-6.917-10.978-3.234-5.585-6.038-11.4 2.794-5.816 6.02-11.41 3.222-5.591 6.862-10.925a171.399 171.399 0 0 1 25.798.004q3.6 5.322 6.819 10.888 3.235 5.577 6.1 11.356-2.836 5.834-6.081 11.456zm12.473-67.516c4.739 2.733 6.582 13.755 3.6 28.21q-.293 1.412-.636 2.814a144.838 144.838 0 0 0-18.923-2.99 142.029 142.029 0 0 0-11.96-14.93q1.59-1.533 3.255-2.985c10.449-9.093 20.214-12.684 24.664-10.117z" class="cls-1" data-name="Path 51" transform="translate(-9.774 -9.513)"/>
    <path id="Path_52" d="M120.682 94.665a12.638 12.638 0 1 1-12.638 12.635 12.638 12.638 0 0 1 12.638-12.638" class="cls-2" data-name="Path 52" transform="translate(-40.843 -35.863)"/>
</svg>
