<svg xmlns="http://www.w3.org/2000/svg" width="160.346" height="152.225" viewBox="0 0 160.346 152.225">
    <defs>
        <style>
            .cls-1{fill:#764abc}
        </style>
    </defs>
    <path id="redux" d="M111.1 106.313a11.461 11.461 0 0 0-1.225-22.854h-.408a11.416 11.416 0 0 0-11.015 11.834 11.719 11.719 0 0 0 3.265 7.55c-6.937 13.672-17.548 23.67-33.464 32.037a55.18 55.18 0 0 1-33.259 6.326c-9.182-1.225-16.324-5.305-20.814-12.04-6.529-10-7.141-20.814-1.632-31.628a48.032 48.032 0 0 1 13.875-16.324c-.816-2.653-2.041-7.142-2.653-10.406C-5.816 92.233-2.755 121.209 6.223 134.88c6.733 10.2 20.4 16.529 35.5 16.529a50.19 50.19 0 0 0 12.243-1.428c26.118-5.1 45.911-20.61 57.133-43.668zm35.913-25.3c-15.508-18.161-38.361-28.16-64.479-28.16h-3.262a11.213 11.213 0 0 0-10-6.122h-.408a11.431 11.431 0 0 0 .408 22.854h.408a11.5 11.5 0 0 0 10-6.938h3.673a77.77 77.77 0 0 1 43.463 13.264c10.2 6.734 17.548 15.508 21.629 26.119 3.469 8.57 3.265 16.937-.408 24.079-5.713 10.815-15.3 16.732-27.954 16.732a52.189 52.189 0 0 1-20-4.285c-2.244 2.041-6.326 5.305-9.182 7.346a63 63 0 0 0 26.322 6.326c19.589 0 34.076-10.815 39.585-21.63 5.917-11.836 5.509-32.241-9.794-49.585zM43.359 109.781A11.462 11.462 0 0 0 54.786 120.8h.408a11.43 11.43 0 0 0-.408-22.854h-.408a3.476 3.476 0 0 0-1.428.2 74.764 74.764 0 0 1-10.61-45.3c.816-12.243 4.9-22.854 12.038-31.629C60.3 13.671 71.722 10 79.476 9.794c21.629-.408 30.81 26.527 31.423 37.342 2.653.612 7.142 2.041 10.2 3.061C118.652 17.141 98.248 0 78.66 0 60.3 0 43.359 13.264 36.625 32.853c-9.386 26.119-3.265 51.217 8.162 71.011a9.169 9.169 0 0 0-1.428 5.918z" class="cls-1"/>
</svg>
