<svg xmlns="http://www.w3.org/2000/svg" width="232.646" height="157.422" viewBox="0 0 232.646 157.422">
    <defs>
        <style>
            .cls-1{fill:#cf649a}
        </style>
    </defs>
    <path id="sass-1" d="M200.157 90.637a52.2 52.2 0 0 0-21.085 4.431c-2.181-3.9-4.362-7.3-4.726-9.845-.409-2.954-.909-4.759-.409-8.286s2.772-8.533 2.772-8.943c-.046-.369-.5-2.174-5.18-2.215s-8.725.82-9.179 1.928a43.634 43.634 0 0 0-1.954 6.276c-.818 3.856-9.361 17.516-14.224 24.7-1.59-2.79-2.954-5.251-3.227-7.22-.409-2.953-.909-4.759-.409-8.286s2.772-8.533 2.772-8.943c-.045-.369-.5-2.174-5.18-2.215s-8.725.82-9.179 1.928-.954 3.733-1.954 6.276c-.955 2.543-12.315 25.352-15.269 31.3-1.5 3.036-2.817 5.456-3.772 7.1s-.045.123-.136.287c-.818 1.395-1.272 2.174-1.272 2.174v.041c-.636 1.026-1.318 2.01-1.636 2.01-.227 0-.682-2.748.091-6.522 1.681-7.918 5.771-20.265 5.726-20.716 0-.205.772-2.38-2.636-3.487-3.317-1.108-4.5.738-4.771.738s-.5.656-.5.656 3.68-13.914-7.046-13.914c-6.726 0-16 6.6-20.586 12.635-2.907 1.436-9.088 4.475-15.631 7.712-2.5 1.231-5.09 2.543-7.543 3.733l-.5-.493c-13-12.512-37.036-21.373-36.036-38.192.364-6.112 2.727-22.234 46.17-41.761 35.582-16 64.074-11.609 69.027-1.846 7.044 13.948-15.223 39.874-52.213 43.607C66.374 66.721 58.967 61.8 57.1 59.952c-1.954-1.928-2.227-2.01-2.954-1.641-1.182.574-.454 2.3 0 3.323 1.091 2.584 5.635 7.179 13.36 9.476 6.77 2.01 23.312 3.118 43.307-3.856 22.4-7.835 39.9-29.577 34.764-47.75C140.355 1 106.364-5.068 74.236 5.229 55.1 11.382 34.382 20.981 19.477 33.575 1.755 48.507-1.063 61.552.119 66.967c4.136 19.321 33.628 31.915 45.443 41.227-.591.287-1.136.574-1.636.82-5.908 2.625-28.4 13.25-34.037 24.49-6.362 12.717 1 21.865 5.908 23.1 15.178 3.815 30.719-3.036 39.126-14.317 8.361-11.281 7.362-25.926 3.5-32.613l-.137-.246 4.635-2.461c3-1.6 5.953-3.077 8.543-4.349a46.777 46.777 0 0 0-3.044 13.948c-.636 7.22 2.636 16.573 6.953 20.265a8.267 8.267 0 0 0 5.589 1.641c5 0 7.271-3.733 9.77-8.2 3.09-5.456 5.817-11.773 5.817-11.773S93.14 135.6 102.455 135.6c3.408 0 6.816-3.979 8.361-6.03v.041s.091-.123.273-.41q.286-.382.545-.779v-.082c1.363-2.133 4.408-7.015 8.952-15.1 5.862-10.42 11.5-23.465 11.5-23.465a68.749 68.749 0 0 0 2.227 8.451c1 3.118 3.181 6.523 4.862 9.845-1.363 1.723-2.181 2.708-2.181 2.708l.045.041a116.566 116.566 0 0 1-3.59 4.1c-4.635 5-10.179 10.707-10.906 12.348-.863 1.928-.682 3.363 1 4.512 1.227.82 3.408.984 5.726.82a27.786 27.786 0 0 0 8.543-1.764 30.834 30.834 0 0 0 7.362-3.487c4.544-3.035 7.316-7.343 7.044-13.086a24.311 24.311 0 0 0-2.681-9.23c.409-.533.818-1.067 1.227-1.641a169.45 169.45 0 0 0 12.724-19.9 68.745 68.745 0 0 0 2.227 8.451 56.481 56.481 0 0 0 4.135 8.451c-6.726 4.964-10.952 10.707-12.406 14.481-2.681 6.974-.591 10.132 3.363 10.871 1.772.328 4.317-.41 6.225-1.149a29.453 29.453 0 0 0 7.862-3.651c4.544-3.036 8.907-7.261 8.68-12.963a22.846 22.846 0 0 0-1.954-7.671c5.726-2.133 13.132-3.364 22.54-2.338 20.222 2.133 24.221 13.537 23.449 18.3s-5 7.384-6.408 8.2c-1.409.779-1.863 1.067-1.727 1.641.182.862.818.82 2.045.657 1.681-.247 10.634-3.9 11-12.675.545-11.283-11.315-23.589-32.355-23.467zM44.2 138.1c-6.68 6.6-16.087 9.107-20.086 6.974-4.317-2.256-2.636-11.979 5.589-18.993a106.924 106.924 0 0 1 15.767-10.626c.954-.533 2.408-1.312 4.135-2.256a4.99 4.99 0 0 1 .454-.246c.318-.164.682-.369 1.045-.574 3.045 10.009.136 18.788-6.907 25.721zm48.851-29.987c-2.318 5.128-7.225 18.3-10.179 17.558-2.545-.615-4.09-10.584-.5-20.429a44.526 44.526 0 0 1 7.952-13.169C94 88.38 98 87.15 99 88.667c1.183 1.97-4.5 16.246-5.951 19.445zm40.308 17.393c-1 .452-1.909.779-2.318.534-.318-.164.409-.779.409-.779s5.044-4.882 7.044-7.138c1.136-1.312 2.5-2.83 3.954-4.553v.492c0 5.907-6.271 9.845-9.088 11.445zm31.082-6.4c-.727-.492-.636-2.01 1.818-6.769a25.8 25.8 0 0 1 6.907-8.04 9.265 9.265 0 0 1 .682 3.528c-.048 7.384-5.864 10.133-9.409 11.281z" class="cls-1" transform="translate(.116 -.241)"/>
</svg>
